<?xml version="1.0" encoding="UTF-8"?>
<svg id="Layer_1" data-name="Layer 1" xmlns="http://www.w3.org/2000/svg" viewBox="0 0 400 400">
  <defs>
    <style>
      .cls-1 {
        fill: #57a8a9;
      }

      .cls-2 {
        fill: #df4a2a;
      }

      .cls-3 {
        fill: #f3b02e;
      }

      .cls-4 {
        fill: #f0d5b7;
      }
    </style>
  </defs>
  <path class="cls-4" d="M395.44,200c0,3.2-.08,6.4-.23,9.59-.16,3.2-.4,6.39-.71,9.57s-.7,6.36-1.17,9.52c-.47,3.17-1.02,6.31-1.64,9.45-.63,3.14-1.33,6.26-2.1,9.36s-1.63,6.18-2.56,9.24-1.93,6.1-3.01,9.11-2.23,5.99-3.45,8.95-2.52,5.88-3.89,8.77-2.81,5.74-4.31,8.57c-1.51,2.82-3.08,5.6-4.73,8.35-1.65,2.74-3.35,5.44-5.13,8.1-1.78,2.66-3.62,5.27-5.53,7.84-1.91,2.57-3.87,5.09-5.9,7.56-2.03,2.47-4.12,4.89-6.27,7.26s-4.35,4.69-6.61,6.95-4.58,4.47-6.95,6.61-4.79,4.24-7.26,6.27c-2.47,2.03-4.99,3.99-7.56,5.9-2.57,1.91-5.19,3.75-7.84,5.53-2.66,1.78-5.36,3.48-8.1,5.13-2.74,1.65-5.53,3.22-8.35,4.73-2.82,1.51-5.68,2.94-8.57,4.31s-5.81,2.66-8.77,3.89c-2.95,1.22-5.94,2.38-8.95,3.45s-6.05,2.08-9.11,3.01-6.14,1.78-9.24,2.56-6.22,1.48-9.36,2.1c-3.14.63-6.29,1.17-9.45,1.64-3.16.47-6.34.86-9.52,1.17s-6.37.55-9.57.71c-3.19.16-6.39.23-9.59.23s-6.4-.08-9.59-.23c-3.2-.16-6.39-.4-9.57-.71s-6.36-.7-9.52-1.17c-3.17-.47-6.31-1.02-9.45-1.64-3.14-.63-6.26-1.33-9.36-2.1s-6.18-1.63-9.24-2.56-6.1-1.93-9.11-3.01-5.99-2.23-8.95-3.45c-2.96-1.22-5.88-2.52-8.77-3.89s-5.74-2.81-8.57-4.31c-2.82-1.51-5.6-3.08-8.35-4.73-2.74-1.65-5.44-3.35-8.1-5.13-2.66-1.78-5.27-3.62-7.84-5.53-2.57-1.91-5.09-3.87-7.56-5.9-2.47-2.03-4.89-4.12-7.26-6.27s-4.69-4.35-6.95-6.61-4.47-4.58-6.61-6.95c-2.15-2.37-4.24-4.79-6.27-7.26-2.03-2.47-3.99-4.99-5.9-7.56-1.91-2.57-3.75-5.19-5.53-7.84-1.78-2.66-3.48-5.36-5.13-8.1-1.65-2.74-3.22-5.53-4.73-8.35-1.51-2.82-2.95-5.68-4.31-8.57-1.37-2.89-2.66-5.82-3.89-8.77s-2.38-5.94-3.45-8.95c-1.08-3.01-2.08-6.05-3.01-9.11s-1.78-6.14-2.56-9.24c-.78-3.1-1.48-6.22-2.1-9.36-.63-3.14-1.17-6.29-1.64-9.45-.47-3.16-.86-6.34-1.17-9.52s-.55-6.37-.71-9.57c-.16-3.19-.23-6.39-.23-9.59s.08-6.4.23-9.59c.16-3.2.4-6.39.71-9.57s.7-6.36,1.17-9.52c.47-3.17,1.02-6.31,1.64-9.45.63-3.14,1.32-6.26,2.1-9.36.78-3.1,1.63-6.18,2.56-9.24s1.93-6.1,3.01-9.11c1.08-3.01,2.23-5.99,3.45-8.95,1.22-2.96,2.52-5.88,3.89-8.77,1.36-2.89,2.81-5.74,4.31-8.57,1.51-2.82,3.08-5.6,4.73-8.35,1.65-2.74,3.35-5.44,5.13-8.1,1.78-2.66,3.62-5.27,5.53-7.84,1.91-2.57,3.87-5.09,5.9-7.56,2.03-2.47,4.11-4.89,6.27-7.26,2.15-2.37,4.35-4.69,6.61-6.95s4.58-4.47,6.95-6.61c2.37-2.15,4.79-4.24,7.26-6.27,2.47-2.03,4.99-3.99,7.56-5.9,2.57-1.91,5.19-3.75,7.84-5.53,2.66-1.78,5.36-3.48,8.1-5.13,2.74-1.65,5.53-3.22,8.35-4.73,2.82-1.51,5.68-2.95,8.57-4.31,2.89-1.37,5.81-2.66,8.77-3.89,2.95-1.22,5.94-2.38,8.95-3.45,3.01-1.08,6.05-2.08,9.11-3.01s6.14-1.78,9.24-2.56c3.1-.78,6.22-1.48,9.36-2.1,3.14-.63,6.29-1.17,9.45-1.64,3.16-.47,6.34-.86,9.52-1.17s6.37-.55,9.57-.71c3.19-.16,6.39-.23,9.59-.23s6.4.08,9.59.23c3.2.16,6.39.4,9.57.71s6.36.7,9.52,1.17c3.17.47,6.31,1.02,9.45,1.64,3.14.63,6.26,1.32,9.36,2.1,3.1.78,6.18,1.63,9.24,2.56s6.1,1.93,9.11,3.01c3.01,1.08,5.99,2.23,8.95,3.45,2.96,1.22,5.88,2.52,8.77,3.89,2.89,1.36,5.74,2.81,8.57,4.31,2.82,1.51,5.6,3.08,8.35,4.73,2.74,1.65,5.44,3.35,8.1,5.13,2.66,1.78,5.27,3.62,7.84,5.53,2.57,1.91,5.09,3.87,7.56,5.9,2.47,2.03,4.89,4.11,7.26,6.27,2.37,2.15,4.69,4.35,6.95,6.61s4.47,4.58,6.61,6.95,4.24,4.79,6.27,7.26c2.03,2.47,3.99,4.99,5.9,7.56,1.91,2.57,3.75,5.19,5.53,7.84,1.78,2.66,3.48,5.36,5.13,8.1,1.65,2.74,3.22,5.53,4.73,8.35,1.51,2.82,2.94,5.68,4.31,8.57s2.66,5.81,3.89,8.77c1.22,2.95,2.38,5.94,3.45,8.95s2.08,6.05,3.01,9.11,1.78,6.14,2.56,9.24,1.48,6.22,2.1,9.36c.63,3.14,1.17,6.29,1.64,9.45.47,3.16.86,6.34,1.17,9.52s.55,6.37.71,9.57c.16,3.19.23,6.39.23,9.59Z"/>
  <path class="cls-2" d="M198.19,200.99h-124.38s8.33-128.7,122.51-127.18c127.33,1.7,128.11,127.18,128.11,127.18h-126.24Z"/>
  <path class="cls-1" d="M73.03,200.21h251.04s-8.31,126.35-123.86,126.77c-115.55.42-127.18-126.77-127.18-126.77Z"/>
  <path class="cls-3" d="M159.06,199.38h82.71s-3.11-42.6-40.94-43.02c-39.7-.44-41.77,43.02-41.77,43.02Z"/>
  <path d="M341.42,58.58C303.65,20.81,253.42,0,200,0S96.35,20.81,58.58,58.58C20.81,96.35,0,146.58,0,200s20.81,103.65,58.58,141.42c37.78,37.77,88,58.58,141.42,58.58s103.65-20.81,141.42-58.58c37.77-37.78,58.58-88,58.58-141.42s-20.81-103.65-58.58-141.42ZM200,391.27c-105.47,0-191.27-85.8-191.27-191.27S94.53,8.73,200,8.73s191.27,85.8,191.27,191.27-85.8,191.27-191.27,191.27Z"/>
  <path d="M363.54,156.61c-.61-2.33-3.01-3.72-5.33-3.1-2.33.61-3.72,3-3.1,5.33,3.52,13.33,5.31,27.15,5.31,41.08s-1.8,27.86-5.35,41.24c-.62,2.33.77,4.72,3.1,5.34.38.1.75.15,1.12.15,1.93,0,3.7-1.29,4.21-3.24,3.74-14.11,5.65-28.74,5.65-43.48s-1.89-29.25-5.6-43.31Z"/>
  <path d="M41.92,153.43c-2.33-.62-4.72.76-5.34,3.09-3.8,14.2-5.72,28.92-5.72,43.76s1.88,29.17,5.57,43.19c.52,1.96,2.28,3.25,4.21,3.25.37,0,.74-.05,1.11-.14,2.33-.61,3.72-3.01,3.11-5.33-3.5-13.3-5.28-27.08-5.28-40.96s1.82-28.04,5.42-41.5c.62-2.33-.77-4.72-3.09-5.34Z"/>
  <path d="M200,70.14c-71.61,0-129.86,58.26-129.86,129.86s58.26,129.86,129.86,129.86,129.86-58.26,129.86-129.86-58.26-129.86-129.86-129.86ZM200,78.86c65.33,0,118.74,51.99,121.05,116.77h-75.78c-1.3-23.84-21.1-42.84-45.27-42.84s-43.96,19-45.27,42.84h-75.78c2.31-64.78,55.71-116.77,121.05-116.77ZM293.73,276.65c-12.09,1.55-22.79-3.1-34.07-7.99-10.43-4.53-21.22-9.21-33.68-9.21-13.88,0-27.52,5.64-40.7,11.09-21.28,8.8-34.79,13.57-43.93,1.45-11.07-14.67-24.98-16.86-34.71-16.11-5.01.39-9.41,1.57-12.64,2.71-4.78-8.6-8.54-17.85-11.11-27.57,8.03-3.43,37.07-14.03,51.48,5.08,5.96,7.91,13.24,10.74,21.22,10.74,10.31,0,21.77-4.73,33.01-9.39,12.4-5.13,25.22-10.43,37.37-10.43,10.65,0,20.32,4.26,30.57,8.76,16.71,7.34,35.35,15.53,58.5,2.15-4.71,14.26-12,27.35-21.32,38.72ZM321.05,204.36c-.25,7.05-1.1,13.94-2.51,20.64-23.2,18.29-39.58,11.09-58.47,2.79-10.62-4.67-21.6-9.5-34.08-9.5-13.88,0-27.52,5.64-40.7,11.09-21.28,8.8-34.79,13.57-43.93,1.45-8.84-11.72-22.95-16.53-40.8-13.9-8.21,1.21-15.37,3.71-19.6,5.43-1.1-5.86-1.77-11.88-1.99-18h242.09ZM161.89,195.64c1.29-19.91,17.89-35.71,38.11-35.71s36.82,15.8,38.11,35.71h-76.23ZM147.41,309.11c12.19-.27,25.47-2.69,38.48-5.06,12.99-2.37,25.26-4.6,35.62-4.6,11.42,0,17.22,4.57,22.33,8.61,1.36,1.08,2.75,2.17,4.2,3.14-14.73,6.39-30.98,9.94-48.04,9.94-18.83,0-36.68-4.32-52.59-12.03ZM259.39,305.54c-3.48.77-5.72-.85-10.14-4.33-5.61-4.43-13.29-10.49-27.74-10.49-11.16,0-23.8,2.3-37.18,4.74-19.78,3.61-40.23,7.33-54.82,2.99-12.17-8.74-22.65-19.67-30.88-32.22,2.4-.73,5.38-1.41,8.68-1.67,10.98-.84,20.09,3.42,27.07,12.67,5.96,7.91,13.24,10.74,21.22,10.74,10.31,0,21.77-4.74,33.01-9.39,12.4-5.13,25.22-10.43,37.37-10.43,10.65,0,20.15,4.13,30.2,8.49,9.31,4.04,18.86,8.18,29.48,8.91-7.78,7.79-16.62,14.52-26.27,19.97Z"/>
  <path d="M200,143.17c2.41,0,4.36-1.95,4.36-4.36v-19.32c0-2.41-1.95-4.36-4.36-4.36s-4.36,1.95-4.36,4.36v19.32c0,2.41,1.95,4.36,4.36,4.36Z"/>
  <path d="M223.38,150.75c1.11,0,2.23-.43,3.08-1.28l15.28-15.28c1.7-1.7,1.7-4.46,0-6.17-1.7-1.7-4.47-1.7-6.17,0l-15.28,15.28c-1.7,1.7-1.7,4.47,0,6.17.85.85,1.97,1.28,3.09,1.28Z"/>
  <path d="M240.15,171.13c.85,1.15,2.17,1.76,3.5,1.76.91,0,1.82-.28,2.6-.86l19.64-14.65c1.93-1.44,2.33-4.18.89-6.11-1.44-1.93-4.17-2.33-6.1-.89l-19.64,14.65c-1.93,1.44-2.33,4.18-.89,6.11Z"/>
  <path d="M249.88,188.16c0,2.41,1.95,4.36,4.36,4.36h21.51c2.41,0,4.36-1.96,4.36-4.36s-1.95-4.36-4.36-4.36h-21.51c-2.41,0-4.36,1.95-4.36,4.36Z"/>
  <path d="M173.54,149.47c.85.85,1.97,1.28,3.08,1.28s2.23-.42,3.09-1.28c1.7-1.7,1.7-4.47,0-6.17l-15.28-15.28c-1.7-1.7-4.47-1.7-6.17,0-1.7,1.71-1.7,4.47,0,6.17l15.28,15.28Z"/>
  <path d="M134.11,157.36l19.64,14.65c.78.58,1.7.86,2.6.86,1.33,0,2.65-.6,3.51-1.76,1.44-1.93,1.04-4.67-.89-6.11l-19.64-14.65c-1.93-1.44-4.67-1.04-6.1.89-1.44,1.93-1.05,4.67.89,6.11Z"/>
  <path d="M124.25,192.52h21.51c2.41,0,4.36-1.96,4.36-4.36s-1.95-4.36-4.36-4.36h-21.51c-2.41,0-4.36,1.95-4.36,4.36s1.95,4.36,4.36,4.36Z"/>
  <path d="M72.94,132.71l-26.46-15.29c-.59-.33-.06-1.94,1.6-4.81,1.67-2.89,2.8-4.17,3.4-3.83l20.83,12.06,3.79-6.54c.29-.53,1.16-.5,2.6.08.71.29,1.4.64,2.08,1.04.68.39,1.34.83,2,1.31,1.23,1.02,1.71,1.77,1.42,2.27l-7.58,13.1c-.36.63-.91.98-1.65,1.06-.72.07-1.4-.08-2.04-.46Z"/>
  <path d="M94.68,106.45c-2.99,3.5-6.57,5.38-10.75,5.63-4.17.24-8.45-1.52-12.85-5.27-4.4-3.75-6.78-7.7-7.15-11.85-.38-4.17.94-8.01,3.94-11.54,3-3.53,6.54-5.42,10.63-5.69,4.08-.28,8.38,1.52,12.9,5.38,4.53,3.85,6.95,7.83,7.27,11.94.33,4.1-.99,7.91-3.98,11.42ZM74.99,89.62c-1.03,1.2-1.34,2.67-.94,4.42.41,1.74,1.6,3.45,3.58,5.15,1.97,1.68,3.82,2.59,5.54,2.73,1.72.13,3.11-.44,4.19-1.69,1.07-1.26,1.4-2.74,1-4.44-.39-1.69-1.58-3.39-3.58-5.08-1.98-1.71-3.86-2.61-5.63-2.73-1.76-.11-3.15.44-4.17,1.65Z"/>
  <path d="M83.36,67.94c-.09-.14.38-.69,1.42-1.67,1.04-.97,1.93-1.73,2.67-2.29,2.91-2.19,4.7-2.96,5.4-2.29l16.42,14.71-9.88-19.65c-.4-.89.94-2.5,4.02-4.83.75-.57,1.74-1.23,2.98-1.98,1.23-.76,1.9-1.08,2-.96l12.65,31.19c.22.49-.33,1.33-1.67,2.54-2.06,1.92-4.05,3.49-5.98,4.73-1.92,1.22-3.06,1.69-3.44,1.4l-26.58-20.9Z"/>
  <path d="M134.41,50.53c.57-.28,1.36.61,2.4,2.67.3.63.59,1.39.88,2.29.29.89.26,1.43-.08,1.6l-5.6,2.77,2.19,4.4,8.1-4.02c.48-.25,1.14.22,1.96,1.42.36.52.7,1.09,1.02,1.73.32.64.64,1.5.96,2.58.32,1.07.28,1.71-.13,1.92l-15.04,7.48c-1.11.56-1.9.39-2.35-.52l-14.06-28.27c-.39-.78-.25-1.33.42-1.67l15.73-7.83c.63-.3,1.58.84,2.88,3.44,1.29,2.6,1.63,4.05,1,4.35l-8.13,4.04,2.21,4.44,5.67-2.81Z"/>
  <path d="M165.78,36.94l-.06-.52c-.17-.79-.57-1.36-1.21-1.73-.63-.36-1.33-.46-2.1-.29-.77.17-1.35.56-1.75,1.19-.39.63-.49,1.39-.29,2.27.53,2.43,2.5,3.27,5.92,2.52.78-.17,1.63-.42,2.54-.75,6.13-2.18,9.22-3.28,9.29-3.29.9-.19,1.55.62,1.96,2.44.32,1.49.33,3.01.04,4.56l-4.79,1.67c1.29,1.83,2.11,3.56,2.48,5.19.54,2.53.03,4.84-1.54,6.94-1.57,2.08-4.2,3.53-7.9,4.33-3.7.81-6.81.54-9.35-.79-2.53-1.33-4.1-3.42-4.73-6.25-.61-2.83.21-5.55,2.48-8.17-2.5-1.79-4.07-4.16-4.71-7.1-.65-2.94-.15-5.54,1.5-7.79,1.64-2.26,4.09-3.75,7.35-4.46,3.26-.72,6.02-.49,8.27.69,2.26,1.18,3.69,3.14,4.29,5.85.13.54-.28,1.19-1.21,1.94-.93.74-2.12,1.27-3.56,1.58-1.43.31-2.41.3-2.92-.02ZM162.65,47.88c-.14,1-.14,1.86.02,2.58.15.72.4,1.33.73,1.83.79,1.13,1.96,1.52,3.5,1.19,1.08-.23,1.78-.8,2.1-1.69.32-.9.34-1.94.08-3.13-.11-.54-.22-.94-.31-1.21-.08-.26-.14-.43-.15-.5-1.06.45-2.11.79-3.17,1.02-1.04.22-1.98.19-2.81-.1Z"/>
  <path d="M220.87,57.46c-.03.55-1.7.74-5,.56-3.31-.18-4.95-.55-4.92-1.1l.63-11.27-6.88-.38-.63,11.27c-.03.55-1.7.73-5,.54-3.29-.18-4.93-.55-4.9-1.1l1.79-32.52c.04-.68,1.71-.92,5-.73,3.3.18,4.94.61,4.9,1.29l-.63,11.54,6.88.38.63-11.46c.03-.46.86-.73,2.5-.83.86-.01,1.69,0,2.5.04l2.52.25c1.63.27,2.42.63,2.4,1.08l-1.79,32.44Z"/>
  <path d="M236.68,62.83c-4.43-1.22-7.65-3.67-9.65-7.33-1.99-3.68-2.21-8.3-.67-13.88,1.55-5.58,4.14-9.42,7.75-11.5,3.63-2.08,7.67-2.51,12.13-1.27,4.47,1.22,7.69,3.63,9.65,7.21s2.15,8.24.56,13.98c-1.58,5.72-4.17,9.59-7.75,11.6-3.57,2.03-7.58,2.42-12.02,1.19ZM243.6,37.9c-1.52-.42-2.97-.07-4.38,1.04-1.41,1.1-2.45,2.91-3.15,5.42-.7,2.5-.74,4.56-.15,6.19.61,1.61,1.71,2.64,3.29,3.08,1.59.43,3.08.1,4.46-.98s2.41-2.88,3.1-5.4c.71-2.53.73-4.61.08-6.25-.66-1.65-1.74-2.69-3.27-3.1Z"/>
  <path d="M281.11,42.71c2.14,1.08,3.86,2.34,5.17,3.77,1.32,1.42,1.71,2.64,1.19,3.67-.52,1.02-1.54,2.08-3.08,3.19-1.54,1.1-2.58,1.52-3.1,1.25-.14-.07-.27-.23-.38-.48-.11-.26-.47-.67-1.06-1.21-.58-.54-1.12-.94-1.6-1.19-1.7-.86-3.37-.95-5.02-.27-1.64.67-3.09,2.23-4.35,4.69-1.25,2.46-1.65,4.56-1.19,6.29.46,1.74,1.51,3.02,3.15,3.85.68.34,1.48.64,2.4.88.92.23,1.64.26,2.17.08.08-.02.21.02.38.1.18.09.34.59.5,1.48.15.9.16,1.98.02,3.25-.14,1.28-.36,2.21-.67,2.79-.57,1.14-1.91,1.59-4,1.38-2.1-.21-4.34-.93-6.73-2.15-3.85-1.96-6.32-4.93-7.42-8.92-1.08-3.98-.37-8.44,2.15-13.38,2.53-4.94,5.78-8.18,9.77-9.71,4-1.53,7.91-1.32,11.73.63Z"/>
  <path d="M283.11,84.22c-.29.39-1.66-.36-4.1-2.25l-2.08-1.81c-1.21-1.11-1.72-1.8-1.52-2.06l20.25-26.02c.33-.43,1.79.36,4.38,2.38,2.59,2.02,3.73,3.24,3.4,3.67l-7.73,9.94,12.44-6.25c.47-.22,1.65.41,3.52,1.88,3.43,2.67,5.01,4.37,4.75,5.1-.04.06-.1.1-.17.15l-16.23,6.92-.58,16.92c-.04.05-.45.08-1.23.08-2,.09-4.04-.18-6.13-.83-.63-.2-1.18-.48-1.67-.85l-.88-.81c-.67-.85-.91-1.89-.71-3.1l2.17-11.88-.6-.48-7.27,9.33Z"/>
  <path d="M322.74,94.3c.42.47-.23,1.47-1.94,3-.52.46-1.17.94-1.96,1.46-.79.51-1.32.63-1.58.33l-4.17-4.65-3.67,3.27,6.04,6.73c.38.42.09,1.17-.83,2.27-.41.48-.87.96-1.4,1.44-.53.47-1.27,1.01-2.23,1.6-.96.61-1.59.74-1.9.4l-11.21-12.5c-.83-.93-.88-1.74-.13-2.42l23.52-21.08c.64-.57,1.21-.57,1.71-.02l11.73,13.08c.47.53-.38,1.77-2.54,3.71-2.16,1.93-3.47,2.64-3.94,2.1l-6.06-6.75-3.69,3.31,4.23,4.71Z"/>
  <path d="M348.05,109.72c1.19-.23,2.78,1.25,4.75,4.46.51.82,1.05,1.81,1.6,2.98.57,1.17.75,1.76.54,1.77l-22.83,2.06-10.21,6.31c-.47.29-1.28-.27-2.42-1.67-.6-.71-1.14-1.45-1.6-2.21-.46-.75-.88-1.52-1.25-2.31-.75-1.67-.88-2.66-.38-2.96l9.96-6.15,12.08-19.88c.11-.21.63.27,1.54,1.44.93,1.16,1.66,2.16,2.19,3.02,2.13,3.42,2.78,5.6,1.96,6.56l-6.63,8.31,10.69-1.75Z"/>
  <path d="M163.58,371.95l-15.73-4.29c-1.1-.29-1.58-1.57-1.44-3.83.08-1.23.2-2.15.35-2.75.17-.59.38-.97.63-1.13,9.05-5.38,13.94-9.38,14.65-12,.25-.88.21-1.59-.13-2.17-.33-.57-1-.98-2-1.25-.99-.28-2.04-.36-3.15-.25-1.1.11-1.99.31-2.67.6-.82-1.82-1.25-3.61-1.29-5.4-.03-.59.02-1.11.15-1.56.13-.46.32-.86.6-1.23.47-.75,1.86-1.2,4.17-1.35,2.3-.17,4.63.07,6.96.71,7.08,1.92,9.77,6.02,8.06,12.31-.77,2.78-2.49,5.34-5.17,7.69-2.67,2.35-5.55,4.23-8.65,5.65l9.69,2.19c-.29,1.74-.61,3.21-.96,4.44-.33,1.23-.87,2.21-1.6,2.92-.74.72-1.56.96-2.48.71Z"/>
  <path d="M186.15,375.64c-4.1-.33-7.31-2.11-9.65-5.33-2.33-3.22-3.27-7.72-2.79-13.5.47-5.78,2.13-10.03,4.98-12.77,2.86-2.73,6.35-3.93,10.48-3.58,4.13.33,7.34,2.08,9.65,5.23,2.3,3.14,3.21,7.66,2.71,13.56-.49,5.91-2.15,10.2-4.98,12.88s-6.3,3.85-10.4,3.52ZM188.3,349.83c-1.25-.09-2.37.53-3.35,1.88-.99,1.33-1.59,3.31-1.81,5.92-.21,2.61.05,4.65.77,6.1.72,1.46,1.74,2.24,3.06,2.35,1.32.11,2.45-.5,3.4-1.83.96-1.33,1.54-3.3,1.75-5.92.22-2.61-.05-4.65-.81-6.13-.75-1.48-1.75-2.28-3-2.38Z"/>
  <path d="M225.72,374.01l-16.23,1.65c-1.14.11-2.05-.91-2.73-3.06-.36-1.21-.58-2.11-.65-2.73-.06-.61,0-1.02.19-1.23,6.54-8.26,9.67-13.75,9.4-16.46-.08-.92-.39-1.57-.92-1.98-.52-.42-1.29-.57-2.31-.46-1.02.1-2.02.4-3,.9-.99.5-1.75,1.01-2.29,1.52-1.43-1.42-2.48-2.94-3.15-4.58-.22-.54-.35-1.05-.4-1.52-.05-.47-.02-.92.1-1.35.17-.88,1.3-1.8,3.4-2.77,2.09-.98,4.34-1.59,6.75-1.83,7.29-.73,11.27,2.15,11.94,8.65.29,2.86-.4,5.87-2.06,9.02-1.66,3.14-3.67,5.92-6.04,8.33l9.81-1.4c.34,1.72.58,3.22.71,4.5.13,1.27-.04,2.36-.48,3.29-.43.93-1.11,1.44-2.04,1.52Z"/>
  <path d="M243.83,334.43c.59-.17,1.25,1.06,1.96,3.69.22.82.41,1.81.56,2.98.17,1.17.06,1.8-.31,1.9l-9.25,2.52.9,3.46,1.56-.42c3.38-.92,6.16-.61,8.35.9,2.21,1.5,3.75,3.86,4.63,7.08.88,3.22.45,6.17-1.27,8.83-1.72,2.66-4.38,4.47-7.96,5.44-3.57.97-6.31,1.18-8.21.6-.38-.34-.68-.95-.92-1.81-.24-.88-.45-2.14-.63-3.79-.18-1.67-.05-2.56.4-2.69.04,0,.15.03.33.08,2.5.32,4.34.32,5.52,0,1.18-.33,2.07-.92,2.67-1.77.59-.86.76-1.8.48-2.81-.68-2.51-2.38-3.4-5.08-2.67l-4.08,1.15c-.31.16-.66.1-1.06-.15-.4-.25-.67-.64-.81-1.17l-4.04-14.83c-.34-1.3-.05-2.09.9-2.35l15.38-4.17Z"/>
</svg>